<svg xmlns="http://www.w3.org/2000/svg" viewBox="0 0 200.39 200.28"><title>Shape-1_1</title><g id="Laag_2" data-name="Laag 2"><g id="Layer_1" data-name="Layer 1"><circle cx="8.63" cy="136.92" r="3.05"/><circle cx="4.84" cy="119.15" r="3.05"/><path d="M18,51.86a3,3,0,1,0-3,3A3,3,0,0,0,18,51.86Z"/><circle cx="5.92" cy="72.98" r="3.05"/><circle cx="17.09" cy="146.04" r="3.05"/><circle cx="22.38" cy="159.65" r="3.05"/><path d="M6.09,103.89a3,3,0,1,0-3,3A3,3,0,0,0,6.09,103.89Z"/><path d="M7,88.45a3,3,0,1,0-3,3A3,3,0,0,0,7,88.45Z"/><circle cx="115.29" cy="14.48" r="3.05"/><path d="M75.94,7.51a3,3,0,1,0-3,3A3.06,3.06,0,0,0,75.94,7.51Z"/><path d="M98,3.05a3,3,0,1,0-3,3A3,3,0,0,0,98,3.05Z"/><path d="M182.94,155.44a3,3,0,1,0-3.05,3.05A3,3,0,0,0,182.94,155.44Z"/><circle cx="46.83" cy="49.61" r="3.05"/><path d="M198.71,81.75a3,3,0,1,0-3,3A3,3,0,0,0,198.71,81.75Z"/><circle cx="177.82" cy="134.7" r="3.05"/><circle cx="56.97" cy="135.11" r="3.05"/><path d="M61.74,13.14a3,3,0,1,0-3,3A3,3,0,0,0,61.74,13.14Z"/><circle cx="105" cy="197.24" r="3.05"/><path d="M140.17,176.77a3,3,0,1,0-3,3A3,3,0,0,0,140.17,176.77Z"/><circle cx="147.05" cy="14.2" r="3.05"/><circle cx="83.72" cy="196.56" r="3.05"/><circle cx="186.53" cy="142.33" r="3.05"/><circle cx="169.03" cy="166.39" r="3.05"/><circle cx="187.79" cy="53.73" r="3.05"/><circle cx="18.9" cy="79.91" r="3.05"/><circle cx="110.81" cy="3.56" r="3.05"/><circle cx="85.29" cy="11.44" r="3.05"/><circle cx="140.73" cy="161.41" r="3.05"/><circle cx="36.55" cy="173.08" r="3.05"/><path d="M40.27,159.63a3,3,0,1,0-3.05,3A3,3,0,0,0,40.27,159.63Z"/><circle cx="184.35" cy="102.11" r="3.05"/><circle cx="124.97" cy="63.55" r="3.05"/><circle cx="178.4" cy="73.3" r="3.05"/><circle cx="26.8" cy="38.43" r="3.05"/><circle cx="132.06" cy="191.39" r="3.05"/><circle cx="31.66" cy="146.5" r="3.05"/><path d="M174.15,91.62a3,3,0,1,0-3,3A3,3,0,0,0,174.15,91.62Z"/><path d="M156.17,99.08a3,3,0,1,0-3,3A3,3,0,0,0,156.17,99.08Z"/><circle cx="17.74" cy="111.06" r="3.05"/><path d="M169.26,77.24a3,3,0,1,0-3,3A3,3,0,0,0,169.26,77.24Z"/><circle cx="127.01" cy="165.59" r="3.05"/><circle cx="67.35" cy="191.25" r="3.05"/><circle cx="169.72" cy="152.01" r="3.05"/><path d="M44.28,38.43a3,3,0,1,0-3.05,3A3,3,0,0,0,44.28,38.43Z"/><path d="M198.56,112.58a3,3,0,1,0-3.05,3A3.06,3.06,0,0,0,198.56,112.58Z"/><circle cx="64.63" cy="178.27" r="3.05"/><circle cx="92" cy="32.36" r="3.05"/><circle cx="142.26" cy="149.46" r="3.05"/><path d="M109.53,28.13a3,3,0,1,0-3,3.05A3,3,0,0,0,109.53,28.13Z"/><circle cx="173.23" cy="55.1" r="3.05"/><path d="M98.06,189a3,3,0,1,0-3,3A3,3,0,0,0,98.06,189Z"/><path d="M41.26,24.9a3,3,0,1,0-3,3.05A3,3,0,0,0,41.26,24.9Z"/><circle cx="94.41" cy="145.96" r="3.05"/><path d="M185.77,87.09a3,3,0,1,0-3,3A3,3,0,0,0,185.77,87.09Z"/><circle cx="99.59" cy="16.87" r="3.05"/><path d="M54.51,184a3,3,0,1,0-3,3.05A3,3,0,0,0,54.51,184Z"/><circle cx="88.94" cy="161.17" r="3.05"/><path d="M159,155.83a3,3,0,1,0-3,3A3,3,0,0,0,159,155.83Z"/><path d="M85.76,24.83a3,3,0,1,0-3,3.05A3,3,0,0,0,85.76,24.83Z"/><circle cx="128.72" cy="7.6" r="3.05"/><path d="M19.62,96.32a3,3,0,1,0-3.05,3A3,3,0,0,0,19.62,96.32Z"/><circle cx="164.94" cy="35.08" r="3.05"/><circle cx="135.61" cy="35.42" r="3.05"/><circle cx="107.13" cy="182.41" r="3.05"/><circle cx="160.98" cy="48.52" r="3.05"/><circle cx="197.35" cy="97.29" r="3.05"/><path d="M138.44,20.76a3.05,3.05,0,1,0-3.05,3A3,3,0,0,0,138.44,20.76Z"/><path d="M187.22,120.23a3,3,0,1,0-3,3A3,3,0,0,0,187.22,120.23Z"/><circle cx="36.03" cy="77.95" r="3.05"/><circle cx="138.09" cy="59.69" r="3.05"/><circle cx="94.39" cy="174.67" r="3.05"/><path d="M155.08,61.6A3,3,0,1,0,152,64.65,3,3,0,0,0,155.08,61.6Z"/><circle cx="42.84" cy="127.88" r="3.05"/><circle cx="30.39" cy="65.3" r="3.05"/><circle cx="159.85" cy="22.37" r="3.05"/><circle cx="45.23" cy="143.11" r="3.05"/><path d="M149.18,185.6a3.05,3.05,0,1,0-3.05,3.05A3,3,0,0,0,149.18,185.6Z"/><circle cx="57.75" cy="35.75" r="3.05"/><circle cx="30.69" cy="117.92" r="3.05"/><circle cx="176.09" cy="39.67" r="3.05"/><circle cx="50.67" cy="156.08" r="3.05"/><circle cx="165.06" cy="139.46" r="3.05"/><path d="M82,47.7a3,3,0,1,0-3,3A3,3,0,0,0,82,47.7Z"/><circle cx="110.41" cy="170.21" r="3.05"/><path d="M126.75,24.86a3,3,0,1,0-3,3.05A3,3,0,0,0,126.75,24.86Z"/><path d="M21.65,126.37a3,3,0,1,0-3,3A3,3,0,0,0,21.65,126.37Z"/><path d="M196,128.19a3,3,0,1,0-3,3.05A3,3,0,0,0,196,128.19Z"/><circle cx="165.18" cy="104.33" r="3.05"/><path d="M21,64.27a3,3,0,1,0-3,3A3,3,0,0,0,21,64.27Z"/><path d="M151.81,32.23a3,3,0,1,0-3.05,3A3,3,0,0,0,151.81,32.23Z"/><circle cx="31.15" cy="51.31" r="3.05"/><path d="M171.1,124a3,3,0,1,0-3,3.05A3,3,0,0,0,171.1,124Z"/><circle cx="62.45" cy="48.27" r="3.05"/><circle cx="80.41" cy="183.46" r="3.05"/><path d="M76.32,36a3,3,0,1,0-3,3A3,3,0,0,0,76.32,36Z"/><path d="M154.26,168.65a3,3,0,1,0-3,3A3,3,0,0,0,154.26,168.65Z"/><circle cx="154.93" cy="127.31" r="3.05"/><circle cx="74.86" cy="157.03" r="3.05"/><circle cx="130.67" cy="48.75" r="3.05"/><path d="M65.94,164.65a3,3,0,1,0-3,3A3,3,0,0,0,65.94,164.65Z"/><path d="M194.58,68.09a3,3,0,1,0-3,3A3,3,0,0,0,194.58,68.09Z"/><circle cx="57.11" cy="103.31" r="3.05"/><circle cx="116.61" cy="155.86" r="3.05"/><circle cx="106.89" cy="42.5" r="3.05"/><circle cx="70.76" cy="59.88" r="3.05"/><circle cx="151.65" cy="140" r="3.05"/><circle cx="157.8" cy="87.58" r="3.05"/><circle cx="135.95" cy="133.12" r="3.05"/><circle cx="53.03" cy="117.7" r="3.05"/><circle cx="175.89" cy="110.44" r="3.05"/><circle cx="52.21" cy="23.48" r="3.05"/><circle cx="141.88" cy="90.42" r="3.05"/><circle cx="121.33" cy="99.08" r="3.05"/><circle cx="78.31" cy="171.35" r="3.05"/><path d="M33.28,133a3,3,0,1,0-3,3A3,3,0,0,0,33.28,133Z"/><path d="M131.31,87.52a3,3,0,1,0-3.05,3A3,3,0,0,0,131.31,87.52Z"/><circle cx="122.36" cy="135.56" r="3.05"/><circle cx="128.38" cy="149.14" r="3.05"/><circle cx="107.43" cy="72.11" r="3.05"/><circle cx="111.3" cy="89.16" r="3.05"/><circle cx="44.92" cy="94.41" r="3.05"/><circle cx="139" cy="120.53" r="3.05"/><circle cx="71.89" cy="136.49" r="3.05"/><circle cx="43.12" cy="63.55" r="3.05"/><path d="M123.35,37.87a3,3,0,1,0-3,3.05A3,3,0,0,0,123.35,37.87Z"/><circle cx="30.76" cy="102.04" r="3.05"/><path d="M142.79,104.44a3,3,0,1,0-3,3A3,3,0,0,0,142.79,104.44Z"/><path d="M66.24,92.18a3,3,0,1,0-3,3A3,3,0,0,0,66.24,92.18Z"/><path d="M32.15,89.2a3,3,0,1,0-3,3A3.06,3.06,0,0,0,32.15,89.2Z"/><circle cx="56.54" cy="62.96" r="3.05"/><circle cx="108.64" cy="143.86" r="3.05"/><circle cx="104.89" cy="59.21" r="3.05"/><circle cx="100.95" cy="117.77" r="3.05"/><circle cx="58.97" cy="75.74" r="3.05"/><circle cx="118.26" cy="193.48" r="3.05"/><circle cx="42.74" cy="109.34" r="3.05"/><path d="M149.63,46.93a3,3,0,1,0-3,3A3,3,0,0,0,149.63,46.93Z"/><circle cx="49.8" cy="170.52" r="3.05"/><path d="M96.6,45.33a3,3,0,1,0-3,3A3,3,0,0,0,96.6,45.33Z"/><circle cx="108.97" cy="129.83" r="3.05"/><circle cx="159.62" cy="177.56" r="3.05"/><circle cx="67.92" cy="22.96" r="3.05"/><circle cx="80.98" cy="124.72" r="3.05"/><circle cx="76.06" cy="98.82" r="3.05"/><path d="M50.75,82a3,3,0,1,0-3,3A3,3,0,0,0,50.75,82Z"/><path d="M104.32,159.18a3,3,0,1,0-3,3A3,3,0,0,0,104.32,159.18Z"/><circle cx="93.51" cy="71.54" r="3.05"/><path d="M84.32,145.22a3,3,0,1,0-3,3A3,3,0,0,0,84.32,145.22Z"/><circle cx="135.94" cy="73.53" r="3.05"/><path d="M92.13,100a3,3,0,1,0-3,3A3,3,0,0,0,92.13,100Z"/><circle cx="80.49" cy="68.16" r="3.05"/><path d="M125.12,180a3,3,0,1,0-3.05,3A3,3,0,0,0,125.12,180Z"/><circle cx="90.1" cy="58.37" r="3.05"/><circle cx="65.66" cy="121.81" r="3.05"/><circle cx="71.92" cy="110.16" r="3.05"/><path d="M66.17,148.41a3,3,0,1,0-3.05,3.05A3.06,3.06,0,0,0,66.17,148.41Z"/><path d="M120.69,53a3,3,0,1,0-3,3A3,3,0,0,0,120.69,53Z"/><path d="M124.07,121.33a3,3,0,1,0-3,3A3.06,3.06,0,0,0,124.07,121.33Z"/><circle cx="119.77" cy="76.53" r="3.05"/><circle cx="93.18" cy="131.28" r="3.05"/><circle cx="97.38" cy="84.87" r="3.05"/><path d="M157.26,114.45a3,3,0,1,0-3,3A3,3,0,0,0,157.26,114.45Z"/><circle cx="83.12" cy="85.19" r="3.05"/><path d="M168.31,62.71a3,3,0,1,0-3,3.05A3,3,0,0,0,168.31,62.71Z"/><path d="M74.81,79.07a3,3,0,1,0-3,3.05A3,3,0,0,0,74.81,79.07Z"/><path d="M153,75.28a3,3,0,1,0-3,3A3.06,3.06,0,0,0,153,75.28Z"/><path d="M91.37,114.8a3,3,0,1,0-3.05,3A3,3,0,0,0,91.37,114.8Z"/><path d="M116,109.34a3,3,0,1,0-3,3A3,3,0,0,0,116,109.34Z"/><circle cx="129.38" cy="111.08" r="3.05"/><circle cx="102.47" cy="101.02" r="3.05"/></g></g></svg>