<svg fill="none" height="210" viewBox="0 0 649 210" width="649" xmlns="http://www.w3.org/2000/svg"><g fill="#292c2f" fill-opacity=".2"><ellipse cx="1.03033" cy="1.03263" rx="1.03033" ry="1.03263"/><ellipse cx="14.76373" cy="1.03263" rx="1.03033" ry="1.03263"/><ellipse cx="28.49913" cy="1.03263" rx="1.03033" ry="1.03263"/><ellipse cx="42.24033" cy="1.03263" rx="1.03033" ry="1.03263"/><ellipse cx="55.97273" cy="1.03263" rx="1.03033" ry="1.03263"/><ellipse cx="69.70413" cy="1.03263" rx="1.03033" ry="1.03263"/><ellipse cx="83.44343" cy="1.03263" rx="1.03033" ry="1.03263"/><ellipse cx="97.18263" cy="1.03263" rx="1.03033" ry="1.03263"/><ellipse cx="110.91733" cy="1.03263" rx="1.03033" ry="1.03263"/><ellipse cx="124.65133" cy="1.03263" rx="1.03033" ry="1.03263"/><ellipse cx="138.38633" cy="1.03263" rx="1.03033" ry="1.03263"/><ellipse cx="152.11933" cy="1.03263" rx="1.03033" ry="1.03263"/><ellipse cx="165.86633" cy="1.03263" rx="1.03033" ry="1.03263"/><ellipse cx="179.58933" cy="1.03263" rx="1.03033" ry="1.03263"/><ellipse cx="193.32333" cy="1.03263" rx="1.03033" ry="1.03263"/><ellipse cx="207.06833" cy="1.03263" rx="1.03033" ry="1.03263"/><ellipse cx="220.79833" cy="1.03263" rx="1.03033" ry="1.03263"/><ellipse cx="234.53833" cy="1.03263" rx="1.03033" ry="1.03263"/><ellipse cx="248.27133" cy="1.03263" rx="1.03033" ry="1.03263"/><ellipse cx="262.00933" cy="1.03263" rx="1.03033" ry="1.03263"/><ellipse cx="275.74133" cy="1.03263" rx="1.03033" ry="1.03263"/><ellipse cx="289.48233" cy="1.03263" rx="1.03033" ry="1.03263"/><ellipse cx="303.21233" cy="1.03263" rx="1.03033" ry="1.03263"/><ellipse cx="316.94433" cy="1.03263" rx="1.03033" ry="1.03263"/><ellipse cx="1.03033" cy="14.80213" rx="1.03033" ry="1.03263"/><ellipse cx="14.76373" cy="14.80213" rx="1.03033" ry="1.03263"/><ellipse cx="28.49913" cy="14.80213" rx="1.03033" ry="1.03263"/><ellipse cx="42.24033" cy="14.80213" rx="1.03033" ry="1.03263"/><ellipse cx="55.97273" cy="14.80213" rx="1.03033" ry="1.03263"/><ellipse cx="69.70413" cy="14.80213" rx="1.03033" ry="1.03263"/><ellipse cx="83.44343" cy="14.80213" rx="1.03033" ry="1.03263"/><ellipse cx="97.18263" cy="14.80213" rx="1.03033" ry="1.03263"/><ellipse cx="110.91733" cy="14.80213" rx="1.03033" ry="1.03263"/><ellipse cx="124.65133" cy="14.80213" rx="1.03033" ry="1.03263"/><ellipse cx="138.38633" cy="14.80213" rx="1.03033" ry="1.03263"/><ellipse cx="152.11933" cy="14.80213" rx="1.03033" ry="1.03263"/><ellipse cx="165.86633" cy="14.80213" rx="1.03033" ry="1.03263"/><ellipse cx="179.58933" cy="14.80213" rx="1.03033" ry="1.03263"/><ellipse cx="193.32333" cy="14.80213" rx="1.03033" ry="1.03263"/><ellipse cx="207.06833" cy="14.80213" rx="1.03033" ry="1.03263"/><ellipse cx="220.79833" cy="14.80213" rx="1.03033" ry="1.03263"/><ellipse cx="234.53833" cy="14.80213" rx="1.03033" ry="1.03263"/><ellipse cx="248.27133" cy="14.80213" rx="1.03033" ry="1.03263"/><ellipse cx="262.00933" cy="14.80213" rx="1.03033" ry="1.03263"/><ellipse cx="275.74133" cy="14.80213" rx="1.03033" ry="1.03263"/><ellipse cx="289.48233" cy="14.80213" rx="1.03033" ry="1.03263"/><ellipse cx="303.21233" cy="14.80213" rx="1.03033" ry="1.03263"/><ellipse cx="316.94433" cy="14.80213" rx="1.03033" ry="1.03263"/><ellipse cx="1.03033" cy="28.57563" rx="1.03033" ry="1.03263"/><ellipse cx="14.76373" cy="28.57563" rx="1.03033" ry="1.03263"/><ellipse cx="28.49913" cy="28.57563" rx="1.03033" ry="1.03263"/><ellipse cx="42.24033" cy="28.57563" rx="1.03033" ry="1.03263"/><ellipse cx="55.97273" cy="28.57563" rx="1.03033" ry="1.03263"/><ellipse cx="69.70413" cy="28.57563" rx="1.03033" ry="1.03263"/><ellipse cx="83.44343" cy="28.57563" rx="1.03033" ry="1.03263"/><ellipse cx="97.18263" cy="28.57563" rx="1.03033" ry="1.03263"/><ellipse cx="110.91733" cy="28.57563" rx="1.03033" ry="1.03263"/><ellipse cx="124.65133" cy="28.57563" rx="1.03033" ry="1.03263"/><ellipse cx="138.38633" cy="28.57563" rx="1.03033" ry="1.03263"/><ellipse cx="152.11933" cy="28.57563" rx="1.03033" ry="1.03263"/><ellipse cx="165.86633" cy="28.57563" rx="1.03033" ry="1.03263"/><ellipse cx="179.58933" cy="28.57563" rx="1.03033" ry="1.03263"/><ellipse cx="193.32333" cy="28.57563" rx="1.03033" ry="1.03263"/><ellipse cx="207.06833" cy="28.57563" rx="1.03033" ry="1.03263"/><ellipse cx="220.79833" cy="28.57563" rx="1.03033" ry="1.03263"/><ellipse cx="234.53833" cy="28.57563" rx="1.03033" ry="1.03263"/><ellipse cx="248.27133" cy="28.57563" rx="1.03033" ry="1.03263"/><ellipse cx="262.00933" cy="28.57563" rx="1.03033" ry="1.03263"/><ellipse cx="275.74133" cy="28.57563" rx="1.03033" ry="1.03263"/><ellipse cx="289.48233" cy="28.57563" rx="1.03033" ry="1.03263"/><ellipse cx="303.21233" cy="28.57563" rx="1.03033" ry="1.03263"/><ellipse cx="316.94433" cy="28.57563" rx="1.03033" ry="1.03263"/><ellipse cx="1.03033" cy="42.34513" rx="1.03033" ry="1.03263"/><ellipse cx="14.76373" cy="42.34513" rx="1.03033" ry="1.03263"/><ellipse cx="28.49913" cy="42.34513" rx="1.03033" ry="1.03263"/><ellipse cx="42.24033" cy="42.34513" rx="1.03033" ry="1.03263"/><ellipse cx="55.97273" cy="42.34513" rx="1.03033" ry="1.03263"/><ellipse cx="69.70413" cy="42.34513" rx="1.03033" ry="1.03263"/><ellipse cx="83.44343" cy="42.34513" rx="1.03033" ry="1.03263"/><ellipse cx="97.18263" cy="42.34513" rx="1.03033" ry="1.03263"/><ellipse cx="110.91733" cy="42.34513" rx="1.03033" ry="1.03263"/><ellipse cx="124.65133" cy="42.34513" rx="1.03033" ry="1.03263"/><ellipse cx="138.38633" cy="42.34513" rx="1.03033" ry="1.03263"/><ellipse cx="152.11933" cy="42.34513" rx="1.03033" ry="1.03263"/><ellipse cx="165.86633" cy="42.34513" rx="1.03033" ry="1.03263"/><ellipse cx="179.58933" cy="42.34513" rx="1.03033" ry="1.03263"/><ellipse cx="193.32333" cy="42.34513" rx="1.03033" ry="1.03263"/><ellipse cx="207.06833" cy="42.34513" rx="1.03033" ry="1.03263"/><ellipse cx="220.79833" cy="42.34513" rx="1.03033" ry="1.03263"/><ellipse cx="234.53833" cy="42.34513" rx="1.03033" ry="1.03263"/><ellipse cx="248.27133" cy="42.34513" rx="1.03033" ry="1.03263"/><ellipse cx="262.00933" cy="42.34513" rx="1.03033" ry="1.03263"/><ellipse cx="275.74133" cy="42.34513" rx="1.03033" ry="1.03263"/><ellipse cx="289.48233" cy="42.34513" rx="1.03033" ry="1.03263"/><ellipse cx="303.21233" cy="42.34513" rx="1.03033" ry="1.03263"/><ellipse cx="316.94433" cy="42.34513" rx="1.03033" ry="1.03263"/><ellipse cx="1.03033" cy="56.11073" rx="1.03033" ry="1.03263"/><ellipse cx="14.76373" cy="56.11273" rx="1.03033" ry="1.03263"/><ellipse cx="28.49913" cy="56.11273" rx="1.03033" ry="1.03263"/><ellipse cx="42.24033" cy="56.11273" rx="1.03033" ry="1.03263"/><ellipse cx="55.97273" cy="56.11273" rx="1.03033" ry="1.03263"/><ellipse cx="69.70413" cy="56.11273" rx="1.03033" ry="1.03263"/><ellipse cx="83.44343" cy="56.11273" rx="1.03033" ry="1.03263"/><ellipse cx="97.18263" cy="56.11273" rx="1.03033" ry="1.03263"/><ellipse cx="110.91733" cy="56.11273" rx="1.03033" ry="1.03263"/><ellipse cx="124.65133" cy="56.11273" rx="1.03033" ry="1.03263"/><ellipse cx="138.38633" cy="56.11273" rx="1.03033" ry="1.03263"/><ellipse cx="152.11933" cy="56.11273" rx="1.03033" ry="1.03263"/><ellipse cx="165.86633" cy="56.11273" rx="1.03033" ry="1.03263"/><ellipse cx="179.58933" cy="56.11273" rx="1.03033" ry="1.03263"/><ellipse cx="193.32333" cy="56.11273" rx="1.03033" ry="1.03263"/><ellipse cx="207.06833" cy="56.11273" rx="1.03033" ry="1.03263"/><ellipse cx="220.79833" cy="56.11273" rx="1.03033" ry="1.03263"/><ellipse cx="234.53833" cy="56.11273" rx="1.03033" ry="1.03263"/><ellipse cx="248.27133" cy="56.11273" rx="1.03033" ry="1.03263"/><ellipse cx="262.00933" cy="56.11273" rx="1.03033" ry="1.03263"/><ellipse cx="275.74133" cy="56.11273" rx="1.03033" ry="1.03263"/><ellipse cx="289.48233" cy="56.11273" rx="1.03033" ry="1.03263"/><ellipse cx="303.21233" cy="56.11273" rx="1.03033" ry="1.03263"/><ellipse cx="316.94433" cy="56.11273" rx="1.03033" ry="1.03263"/><ellipse cx="1.03033" cy="69.88223" rx="1.03033" ry="1.03263"/><ellipse cx="14.76373" cy="69.88223" rx="1.03033" ry="1.03263"/><ellipse cx="28.49913" cy="69.88223" rx="1.03033" ry="1.03263"/><ellipse cx="42.24033" cy="69.88223" rx="1.03033" ry="1.03263"/><ellipse cx="55.97273" cy="69.88223" rx="1.03033" ry="1.03263"/><ellipse cx="69.70413" cy="69.88223" rx="1.03033" ry="1.03263"/><ellipse cx="83.44343" cy="69.88223" rx="1.03033" ry="1.03263"/><ellipse cx="97.18263" cy="69.88223" rx="1.03033" ry="1.03263"/><ellipse cx="110.91733" cy="69.88223" rx="1.03033" ry="1.03263"/><ellipse cx="124.65133" cy="69.88223" rx="1.03033" ry="1.03263"/><ellipse cx="138.38633" cy="69.88223" rx="1.03033" ry="1.03263"/><ellipse cx="152.11933" cy="69.88223" rx="1.03033" ry="1.03263"/><ellipse cx="165.86633" cy="69.88223" rx="1.03033" ry="1.03263"/><ellipse cx="179.58933" cy="69.88223" rx="1.03033" ry="1.03263"/><ellipse cx="193.32333" cy="69.88223" rx="1.03033" ry="1.03263"/><ellipse cx="207.06833" cy="69.88223" rx="1.03033" ry="1.03263"/><ellipse cx="220.79833" cy="69.88223" rx="1.03033" ry="1.03263"/><ellipse cx="234.53833" cy="69.88223" rx="1.03033" ry="1.03263"/><ellipse cx="248.27133" cy="69.88223" rx="1.03033" ry="1.03263"/><ellipse cx="262.00933" cy="69.88223" rx="1.03033" ry="1.03263"/><ellipse cx="275.74133" cy="69.88223" rx="1.03033" ry="1.03263"/><ellipse cx="289.48233" cy="69.88223" rx="1.03033" ry="1.03263"/><ellipse cx="303.21233" cy="69.88223" rx="1.03033" ry="1.03263"/><ellipse cx="316.94433" cy="69.88223" rx="1.03033" ry="1.03263"/><ellipse cx="1.03033" cy="83.65563" rx="1.03033" ry="1.03263"/><ellipse cx="14.76373" cy="83.65563" rx="1.03033" ry="1.03263"/><ellipse cx="28.49913" cy="83.65563" rx="1.03033" ry="1.03263"/><ellipse cx="42.24033" cy="83.65563" rx="1.03033" ry="1.03263"/><ellipse cx="55.97273" cy="83.65563" rx="1.03033" ry="1.03263"/><ellipse cx="69.70413" cy="83.65563" rx="1.03033" ry="1.03263"/><ellipse cx="83.44343" cy="83.65563" rx="1.03033" ry="1.03263"/><ellipse cx="97.18263" cy="83.65563" rx="1.03033" ry="1.03263"/><ellipse cx="110.91733" cy="83.65563" rx="1.03033" ry="1.03263"/><ellipse cx="124.65133" cy="83.65563" rx="1.03033" ry="1.03263"/><ellipse cx="138.38633" cy="83.65563" rx="1.03033" ry="1.03263"/><ellipse cx="152.11933" cy="83.65563" rx="1.03033" ry="1.03263"/><ellipse cx="165.86633" cy="83.65563" rx="1.03033" ry="1.03263"/><ellipse cx="179.58933" cy="83.65563" rx="1.03033" ry="1.03263"/><ellipse cx="193.32333" cy="83.65563" rx="1.03033" ry="1.03263"/><ellipse cx="207.06833" cy="83.65563" rx="1.03033" ry="1.03263"/><ellipse cx="220.79833" cy="83.65563" rx="1.03033" ry="1.03263"/><ellipse cx="234.53833" cy="83.65563" rx="1.03033" ry="1.03263"/><ellipse cx="248.27133" cy="83.65563" rx="1.03033" ry="1.03263"/><ellipse cx="262.00933" cy="83.65563" rx="1.03033" ry="1.03263"/><ellipse cx="275.74133" cy="83.65563" rx="1.03033" ry="1.03263"/><ellipse cx="289.48233" cy="83.65563" rx="1.03033" ry="1.03263"/><ellipse cx="303.21233" cy="83.65563" rx="1.03033" ry="1.03263"/><ellipse cx="316.94433" cy="83.65563" rx="1.03033" ry="1.03263"/><ellipse cx="1.03033" cy="97.42523" rx="1.03033" ry="1.03263"/><ellipse cx="14.76373" cy="97.42523" rx="1.03033" ry="1.03263"/><ellipse cx="28.49913" cy="97.42523" rx="1.03033" ry="1.03263"/><ellipse cx="42.24033" cy="97.42523" rx="1.03033" ry="1.03263"/><ellipse cx="55.97273" cy="97.42523" rx="1.03033" ry="1.03263"/><ellipse cx="69.70413" cy="97.42523" rx="1.03033" ry="1.03263"/><ellipse cx="83.44343" cy="97.42523" rx="1.03033" ry="1.03263"/><ellipse cx="97.18263" cy="97.42523" rx="1.03033" ry="1.03263"/><ellipse cx="110.91733" cy="97.42523" rx="1.03033" ry="1.03263"/><ellipse cx="124.65133" cy="97.42523" rx="1.03033" ry="1.03263"/><ellipse cx="138.38633" cy="97.42523" rx="1.03033" ry="1.03263"/><ellipse cx="152.11933" cy="97.42523" rx="1.03033" ry="1.03263"/><ellipse cx="165.86633" cy="97.42523" rx="1.03033" ry="1.03263"/><ellipse cx="179.58933" cy="97.42523" rx="1.03033" ry="1.03263"/><ellipse cx="193.32333" cy="97.42523" rx="1.03033" ry="1.03263"/><ellipse cx="207.06833" cy="97.42523" rx="1.03033" ry="1.03263"/><ellipse cx="220.79833" cy="97.42523" rx="1.03033" ry="1.03263"/><ellipse cx="234.53833" cy="97.42523" rx="1.03033" ry="1.03263"/><ellipse cx="248.27133" cy="97.42523" rx="1.03033" ry="1.03263"/><ellipse cx="262.00933" cy="97.42523" rx="1.03033" ry="1.03263"/><ellipse cx="275.74133" cy="97.42523" rx="1.03033" ry="1.03263"/><ellipse cx="289.48233" cy="97.42523" rx="1.03033" ry="1.03263"/><ellipse cx="303.21233" cy="97.42523" rx="1.03033" ry="1.03263"/><ellipse cx="316.94433" cy="97.42523" rx="1.03033" ry="1.03263"/><ellipse cx="330.67233" cy="1.03263" rx="1.03033" ry="1.03263"/><ellipse cx="344.40533" cy="1.03263" rx="1.03033" ry="1.03263"/><ellipse cx="358.14333" cy="1.03263" rx="1.03033" ry="1.03263"/><ellipse cx="371.88433" cy="1.03263" rx="1.03033" ry="1.03263"/><ellipse cx="385.62033" cy="1.03263" rx="1.03033" ry="1.03263"/><ellipse cx="399.35433" cy="1.03263" rx="1.03033" ry="1.03263"/><ellipse cx="413.08733" cy="1.03263" rx="1.03033" ry="1.03263"/><ellipse cx="426.82433" cy="1.03263" rx="1.03033" ry="1.03263"/><ellipse cx="440.55633" cy="1.03263" rx="1.03033" ry="1.03263"/><ellipse cx="454.29733" cy="1.03263" rx="1.03033" ry="1.03263"/><ellipse cx="468.02633" cy="1.03263" rx="1.03033" ry="1.03263"/><ellipse cx="481.76033" cy="1.03263" rx="1.03033" ry="1.03263"/><ellipse cx="495.50633" cy="1.03263" rx="1.03033" ry="1.03263"/><ellipse cx="509.24033" cy="1.03263" rx="1.03033" ry="1.03263"/><ellipse cx="522.97033" cy="1.03263" rx="1.03033" ry="1.03263"/><ellipse cx="536.71033" cy="1.03263" rx="1.03033" ry="1.03263"/><ellipse cx="550.44333" cy="1.03263" rx="1.03033" ry="1.03263"/><ellipse cx="564.17833" cy="1.03263" rx="1.03033" ry="1.03263"/><ellipse cx="577.91333" cy="1.03263" rx="1.03033" ry="1.03263"/><ellipse cx="591.65233" cy="1.03263" rx="1.03033" ry="1.03263"/><ellipse cx="605.38333" cy="1.03263" rx="1.03033" ry="1.03263"/><ellipse cx="619.12333" cy="1.03263" rx="1.03033" ry="1.03263"/><ellipse cx="632.86233" cy="1.03263" rx="1.03033" ry="1.03263"/><ellipse cx="646.59633" cy="1.03263" rx="1.03033" ry="1.03263"/><ellipse cx="330.67233" cy="14.80213" rx="1.03033" ry="1.03263"/><ellipse cx="344.40533" cy="14.80213" rx="1.03033" ry="1.03263"/><ellipse cx="358.14333" cy="14.80213" rx="1.03033" ry="1.03263"/><ellipse cx="371.88433" cy="14.80213" rx="1.03033" ry="1.03263"/><ellipse cx="385.62033" cy="14.80213" rx="1.03033" ry="1.03263"/><ellipse cx="399.35433" cy="14.80213" rx="1.03033" ry="1.03263"/><ellipse cx="413.08733" cy="14.80213" rx="1.03033" ry="1.03263"/><ellipse cx="426.82433" cy="14.80213" rx="1.03033" ry="1.03263"/><ellipse cx="440.55633" cy="14.80213" rx="1.03033" ry="1.03263"/><ellipse cx="454.29733" cy="14.80213" rx="1.03033" ry="1.03263"/><ellipse cx="468.02633" cy="14.80213" rx="1.03033" ry="1.03263"/><ellipse cx="481.76033" cy="14.80213" rx="1.03033" ry="1.03263"/><ellipse cx="495.50633" cy="14.80213" rx="1.03033" ry="1.03263"/><ellipse cx="509.24033" cy="14.80213" rx="1.03033" ry="1.03263"/><ellipse cx="522.97033" cy="14.80213" rx="1.03033" ry="1.03263"/><ellipse cx="536.71033" cy="14.80213" rx="1.03033" ry="1.03263"/><ellipse cx="550.44333" cy="14.80213" rx="1.03033" ry="1.03263"/><ellipse cx="564.17833" cy="14.80213" rx="1.03033" ry="1.03263"/><ellipse cx="577.91333" cy="14.80213" rx="1.03033" ry="1.03263"/><ellipse cx="591.65233" cy="14.80213" rx="1.03033" ry="1.03263"/><ellipse cx="605.38333" cy="14.80213" rx="1.03033" ry="1.03263"/><ellipse cx="619.12333" cy="14.80213" rx="1.03033" ry="1.03263"/><ellipse cx="632.86233" cy="14.80213" rx="1.03033" ry="1.03263"/><ellipse cx="646.59633" cy="14.80213" rx="1.03033" ry="1.03263"/><ellipse cx="330.67233" cy="28.57563" rx="1.03033" ry="1.03263"/><ellipse cx="344.40533" cy="28.57563" rx="1.03033" ry="1.03263"/><ellipse cx="358.14333" cy="28.57563" rx="1.03033" ry="1.03263"/><ellipse cx="371.88433" cy="28.57563" rx="1.03033" ry="1.03263"/><ellipse cx="385.62033" cy="28.57563" rx="1.03033" ry="1.03263"/><ellipse cx="399.35433" cy="28.57563" rx="1.03033" ry="1.03263"/><ellipse cx="413.08733" cy="28.57563" rx="1.03033" ry="1.03263"/><ellipse cx="426.82433" cy="28.57563" rx="1.03033" ry="1.03263"/><ellipse cx="440.55633" cy="28.57563" rx="1.03033" ry="1.03263"/><ellipse cx="454.29733" cy="28.57563" rx="1.03033" ry="1.03263"/><ellipse cx="468.02633" cy="28.57563" rx="1.03033" ry="1.03263"/><ellipse cx="481.76033" cy="28.57563" rx="1.03033" ry="1.03263"/><ellipse cx="495.50633" cy="28.57563" rx="1.03033" ry="1.03263"/><ellipse cx="509.24033" cy="28.57563" rx="1.03033" ry="1.03263"/><ellipse cx="522.97033" cy="28.57563" rx="1.03033" ry="1.03263"/><ellipse cx="536.71033" cy="28.57563" rx="1.03033" ry="1.03263"/><ellipse cx="550.44333" cy="28.57563" rx="1.03033" ry="1.03263"/><ellipse cx="564.17833" cy="28.57563" rx="1.03033" ry="1.03263"/><ellipse cx="577.91333" cy="28.57563" rx="1.03033" ry="1.03263"/><ellipse cx="591.65233" cy="28.57563" rx="1.03033" ry="1.03263"/><ellipse cx="605.38333" cy="28.57563" rx="1.03033" ry="1.03263"/><ellipse cx="619.12333" cy="28.57563" rx="1.03033" ry="1.03263"/><ellipse cx="632.86233" cy="28.57563" rx="1.03033" ry="1.03263"/><ellipse cx="646.59633" cy="28.57563" rx="1.03033" ry="1.03263"/><ellipse cx="330.67233" cy="42.34513" rx="1.03033" ry="1.03263"/><ellipse cx="344.40533" cy="42.34513" rx="1.03033" ry="1.03263"/><ellipse cx="358.14333" cy="42.34513" rx="1.03033" ry="1.03263"/><ellipse cx="371.88433" cy="42.34513" rx="1.03033" ry="1.03263"/><ellipse cx="385.62033" cy="42.34513" rx="1.03033" ry="1.03263"/><ellipse cx="399.35433" cy="42.34513" rx="1.03033" ry="1.03263"/><ellipse cx="413.08733" cy="42.34513" rx="1.03033" ry="1.03263"/><ellipse cx="426.82433" cy="42.34513" rx="1.03033" ry="1.03263"/><ellipse cx="440.55633" cy="42.34513" rx="1.03033" ry="1.03263"/><ellipse cx="454.29733" cy="42.34513" rx="1.03033" ry="1.03263"/><ellipse cx="468.02633" cy="42.34513" rx="1.03033" ry="1.03263"/><ellipse cx="481.76033" cy="42.34513" rx="1.03033" ry="1.03263"/><ellipse cx="495.50633" cy="42.34513" rx="1.03033" ry="1.03263"/><ellipse cx="509.24033" cy="42.34513" rx="1.03033" ry="1.03263"/><ellipse cx="522.97033" cy="42.34513" rx="1.03033" ry="1.03263"/><ellipse cx="536.71033" cy="42.34513" rx="1.03033" ry="1.03263"/><ellipse cx="550.44333" cy="42.34513" rx="1.03033" ry="1.03263"/><ellipse cx="564.17833" cy="42.34513" rx="1.03033" ry="1.03263"/><ellipse cx="577.91333" cy="42.34513" rx="1.03033" ry="1.03263"/><ellipse cx="591.65233" cy="42.34513" rx="1.03033" ry="1.03263"/><ellipse cx="605.38333" cy="42.34513" rx="1.03033" ry="1.03263"/><ellipse cx="619.12333" cy="42.34513" rx="1.03033" ry="1.03263"/><ellipse cx="632.86233" cy="42.34513" rx="1.03033" ry="1.03263"/><ellipse cx="646.59633" cy="42.34513" rx="1.03033" ry="1.03263"/><ellipse cx="330.67233" cy="56.11273" rx="1.03033" ry="1.03263"/><ellipse cx="344.40533" cy="56.11273" rx="1.03033" ry="1.03263"/><ellipse cx="358.14333" cy="56.11273" rx="1.03033" ry="1.03263"/><ellipse cx="371.88433" cy="56.11273" rx="1.03033" ry="1.03263"/><ellipse cx="385.62033" cy="56.11273" rx="1.03033" ry="1.03263"/><ellipse cx="399.35433" cy="56.11273" rx="1.03033" ry="1.03263"/><ellipse cx="413.08733" cy="56.11273" rx="1.03033" ry="1.03263"/><ellipse cx="426.82433" cy="56.11273" rx="1.03033" ry="1.03263"/><ellipse cx="440.55633" cy="56.11273" rx="1.03033" ry="1.03263"/><ellipse cx="454.29733" cy="56.11273" rx="1.03033" ry="1.03263"/><ellipse cx="468.02633" cy="56.11273" rx="1.03033" ry="1.03263"/><ellipse cx="481.76033" cy="56.11273" rx="1.03033" ry="1.03263"/><ellipse cx="495.50633" cy="56.11273" rx="1.03033" ry="1.03263"/><ellipse cx="509.24033" cy="56.11273" rx="1.03033" ry="1.03263"/><ellipse cx="522.97033" cy="56.11273" rx="1.03033" ry="1.03263"/><ellipse cx="536.71033" cy="56.11273" rx="1.03033" ry="1.03263"/><ellipse cx="550.44333" cy="56.11273" rx="1.03033" ry="1.03263"/><ellipse cx="564.17833" cy="56.11273" rx="1.03033" ry="1.03263"/><ellipse cx="577.91333" cy="56.11273" rx="1.03033" ry="1.03263"/><ellipse cx="591.65233" cy="56.11273" rx="1.03033" ry="1.03263"/><ellipse cx="605.38333" cy="56.11273" rx="1.03033" ry="1.03263"/><ellipse cx="619.12333" cy="56.11273" rx="1.03033" ry="1.03263"/><ellipse cx="632.86233" cy="56.11273" rx="1.03033" ry="1.03263"/><ellipse cx="646.59633" cy="56.11273" rx="1.03033" ry="1.03263"/><ellipse cx="330.67233" cy="69.88223" rx="1.03033" ry="1.03263"/><ellipse cx="344.40533" cy="69.88223" rx="1.03033" ry="1.03263"/><ellipse cx="358.14333" cy="69.88223" rx="1.03033" ry="1.03263"/><ellipse cx="371.88433" cy="69.88223" rx="1.03033" ry="1.03263"/><ellipse cx="385.62033" cy="69.88223" rx="1.03033" ry="1.03263"/><ellipse cx="399.35433" cy="69.88223" rx="1.03033" ry="1.03263"/><ellipse cx="413.08733" cy="69.88223" rx="1.03033" ry="1.03263"/><ellipse cx="426.82433" cy="69.88223" rx="1.03033" ry="1.03263"/><ellipse cx="440.55633" cy="69.88223" rx="1.03033" ry="1.03263"/><ellipse cx="454.29733" cy="69.88223" rx="1.03033" ry="1.03263"/><ellipse cx="468.02633" cy="69.88223" rx="1.03033" ry="1.03263"/><ellipse cx="481.76033" cy="69.88223" rx="1.03033" ry="1.03263"/><ellipse cx="495.50633" cy="69.88223" rx="1.03033" ry="1.03263"/><ellipse cx="509.24033" cy="69.88223" rx="1.03033" ry="1.03263"/><ellipse cx="522.97033" cy="69.88223" rx="1.03033" ry="1.03263"/><ellipse cx="536.71033" cy="69.88223" rx="1.03033" ry="1.03263"/><ellipse cx="550.44333" cy="69.88223" rx="1.03033" ry="1.03263"/><ellipse cx="564.17833" cy="69.88223" rx="1.03033" ry="1.03263"/><ellipse cx="577.91333" cy="69.88223" rx="1.03033" ry="1.03263"/><ellipse cx="591.65233" cy="69.88223" rx="1.03033" ry="1.03263"/><ellipse cx="605.38333" cy="69.88223" rx="1.03033" ry="1.03263"/><ellipse cx="619.12333" cy="69.88223" rx="1.03033" ry="1.03263"/><ellipse cx="632.86233" cy="69.88223" rx="1.03033" ry="1.03263"/><ellipse cx="646.59633" cy="69.88223" rx="1.03033" ry="1.03263"/><ellipse cx="330.67233" cy="83.65563" rx="1.03033" ry="1.03263"/><ellipse cx="344.40533" cy="83.65563" rx="1.03033" ry="1.03263"/><ellipse cx="358.14333" cy="83.65563" rx="1.03033" ry="1.03263"/><ellipse cx="371.88433" cy="83.65563" rx="1.03033" ry="1.03263"/><ellipse cx="385.62033" cy="83.65563" rx="1.03033" ry="1.03263"/><ellipse cx="399.35433" cy="83.65563" rx="1.03033" ry="1.03263"/><ellipse cx="413.08733" cy="83.65563" rx="1.03033" ry="1.03263"/><ellipse cx="426.82433" cy="83.65563" rx="1.03033" ry="1.03263"/><ellipse cx="440.55633" cy="83.65563" rx="1.03033" ry="1.03263"/><ellipse cx="454.29733" cy="83.65563" rx="1.03033" ry="1.03263"/><ellipse cx="468.02633" cy="83.65563" rx="1.03033" ry="1.03263"/><ellipse cx="481.76033" cy="83.65563" rx="1.03033" ry="1.03263"/><ellipse cx="495.50633" cy="83.65563" rx="1.03033" ry="1.03263"/><ellipse cx="509.24033" cy="83.65563" rx="1.03033" ry="1.03263"/><ellipse cx="522.97033" cy="83.65563" rx="1.03033" ry="1.03263"/><ellipse cx="536.71033" cy="83.65563" rx="1.03033" ry="1.03263"/><ellipse cx="550.44333" cy="83.65563" rx="1.03033" ry="1.03263"/><ellipse cx="564.17833" cy="83.65563" rx="1.03033" ry="1.03263"/><ellipse cx="577.91333" cy="83.65563" rx="1.03033" ry="1.03263"/><ellipse cx="591.65233" cy="83.65563" rx="1.03033" ry="1.03263"/><ellipse cx="605.38333" cy="83.65563" rx="1.03033" ry="1.03263"/><ellipse cx="619.12333" cy="83.65563" rx="1.03033" ry="1.03263"/><ellipse cx="632.86233" cy="83.65563" rx="1.03033" ry="1.03263"/><ellipse cx="646.59633" cy="83.65563" rx="1.03033" ry="1.03263"/><ellipse cx="330.67233" cy="97.42523" rx="1.03033" ry="1.03263"/><ellipse cx="344.40533" cy="97.42523" rx="1.03033" ry="1.03263"/><ellipse cx="358.14333" cy="97.42523" rx="1.03033" ry="1.03263"/><ellipse cx="371.88433" cy="97.42523" rx="1.03033" ry="1.03263"/><ellipse cx="385.62033" cy="97.42523" rx="1.03033" ry="1.03263"/><ellipse cx="399.35433" cy="97.42523" rx="1.03033" ry="1.03263"/><ellipse cx="413.08733" cy="97.42523" rx="1.03033" ry="1.03263"/><ellipse cx="426.82433" cy="97.42523" rx="1.03033" ry="1.03263"/><ellipse cx="440.55633" cy="97.42523" rx="1.03033" ry="1.03263"/><ellipse cx="454.29733" cy="97.42523" rx="1.03033" ry="1.03263"/><ellipse cx="468.02633" cy="97.42523" rx="1.03033" ry="1.03263"/><ellipse cx="481.76033" cy="97.42523" rx="1.03033" ry="1.03263"/><ellipse cx="495.50633" cy="97.42523" rx="1.03033" ry="1.03263"/><ellipse cx="509.24033" cy="97.42523" rx="1.03033" ry="1.03263"/><ellipse cx="522.97033" cy="97.42523" rx="1.03033" ry="1.03263"/><ellipse cx="536.71033" cy="97.42523" rx="1.03033" ry="1.03263"/><ellipse cx="550.44333" cy="97.42523" rx="1.03033" ry="1.03263"/><ellipse cx="564.17833" cy="97.42523" rx="1.03033" ry="1.03263"/><ellipse cx="577.91333" cy="97.42523" rx="1.03033" ry="1.03263"/><ellipse cx="591.65233" cy="97.42523" rx="1.03033" ry="1.03263"/><ellipse cx="605.38333" cy="97.42523" rx="1.03033" ry="1.03263"/><ellipse cx="619.12333" cy="97.42523" rx="1.03033" ry="1.03263"/><ellipse cx="632.86233" cy="97.42523" rx="1.03033" ry="1.03263"/><ellipse cx="646.59633" cy="97.42523" rx="1.03033" ry="1.03263"/><ellipse cx="1.03033" cy="111.20063" rx="1.03033" ry="1.03263"/><ellipse cx="14.76373" cy="111.19663" rx="1.03033" ry="1.03263"/><ellipse cx="28.49913" cy="111.19663" rx="1.03033" ry="1.03263"/><ellipse cx="42.24033" cy="111.19663" rx="1.03033" ry="1.03263"/><ellipse cx="55.97273" cy="111.19663" rx="1.03033" ry="1.03263"/><ellipse cx="69.70413" cy="111.19663" rx="1.03033" ry="1.03263"/><ellipse cx="83.44343" cy="111.19663" rx="1.03033" ry="1.03263"/><ellipse cx="97.18263" cy="111.19663" rx="1.03033" ry="1.03263"/><ellipse cx="110.91733" cy="111.19663" rx="1.03033" ry="1.03263"/><ellipse cx="124.65133" cy="111.19663" rx="1.03033" ry="1.03263"/><ellipse cx="138.38633" cy="111.19663" rx="1.03033" ry="1.03263"/><ellipse cx="152.11933" cy="111.19663" rx="1.03033" ry="1.03263"/><ellipse cx="165.86633" cy="111.19663" rx="1.03033" ry="1.03263"/><ellipse cx="179.58933" cy="111.19663" rx="1.03033" ry="1.03263"/><ellipse cx="193.32333" cy="111.19663" rx="1.03033" ry="1.03263"/><ellipse cx="207.06833" cy="111.19663" rx="1.03033" ry="1.03263"/><ellipse cx="220.79833" cy="111.19663" rx="1.03033" ry="1.03263"/><ellipse cx="234.53833" cy="111.19663" rx="1.03033" ry="1.03263"/><ellipse cx="248.27133" cy="111.19663" rx="1.03033" ry="1.03263"/><ellipse cx="262.00933" cy="111.19663" rx="1.03033" ry="1.03263"/><ellipse cx="275.74133" cy="111.19663" rx="1.03033" ry="1.03263"/><ellipse cx="289.48233" cy="111.19663" rx="1.03033" ry="1.03263"/><ellipse cx="303.21233" cy="111.19663" rx="1.03033" ry="1.03263"/><ellipse cx="316.94433" cy="111.19663" rx="1.03033" ry="1.03263"/><ellipse cx="1.03033" cy="124.96663" rx="1.03033" ry="1.03263"/><ellipse cx="14.76373" cy="124.96663" rx="1.03033" ry="1.03263"/><ellipse cx="28.49913" cy="124.96663" rx="1.03033" ry="1.03263"/><ellipse cx="42.24033" cy="124.96663" rx="1.03033" ry="1.03263"/><ellipse cx="55.97273" cy="124.96663" rx="1.03033" ry="1.03263"/><ellipse cx="69.70413" cy="124.96663" rx="1.03033" ry="1.03263"/><ellipse cx="83.44343" cy="124.96663" rx="1.03033" ry="1.03263"/><ellipse cx="97.18263" cy="124.96663" rx="1.03033" ry="1.03263"/><ellipse cx="110.91733" cy="124.96663" rx="1.03033" ry="1.03263"/><ellipse cx="124.65133" cy="124.96663" rx="1.03033" ry="1.03263"/><ellipse cx="138.38633" cy="124.96663" rx="1.03033" ry="1.03263"/><ellipse cx="152.11933" cy="124.96663" rx="1.03033" ry="1.03263"/><ellipse cx="165.86633" cy="124.96663" rx="1.03033" ry="1.03263"/><ellipse cx="179.58933" cy="124.96663" rx="1.03033" ry="1.03263"/><ellipse cx="193.32333" cy="124.96663" rx="1.03033" ry="1.03263"/><ellipse cx="207.06833" cy="124.96663" rx="1.03033" ry="1.03263"/><ellipse cx="220.79833" cy="124.96663" rx="1.03033" ry="1.03263"/><ellipse cx="234.53833" cy="124.96663" rx="1.03033" ry="1.03263"/><ellipse cx="248.27133" cy="124.96663" rx="1.03033" ry="1.03263"/><ellipse cx="262.00933" cy="124.96663" rx="1.03033" ry="1.03263"/><ellipse cx="275.74133" cy="124.96663" rx="1.03033" ry="1.03263"/><ellipse cx="289.48233" cy="124.96663" rx="1.03033" ry="1.03263"/><ellipse cx="303.21233" cy="124.96663" rx="1.03033" ry="1.03263"/><ellipse cx="316.94433" cy="124.96663" rx="1.03033" ry="1.03263"/><ellipse cx="1.03033" cy="138.73963" rx="1.03033" ry="1.03263"/><ellipse cx="14.76373" cy="138.73963" rx="1.03033" ry="1.03263"/><ellipse cx="28.49913" cy="138.73963" rx="1.03033" ry="1.03263"/><ellipse cx="42.24033" cy="138.73963" rx="1.03033" ry="1.03263"/><ellipse cx="55.97273" cy="138.73963" rx="1.03033" ry="1.03263"/><ellipse cx="69.70413" cy="138.73963" rx="1.03033" ry="1.03263"/><ellipse cx="83.44343" cy="138.73963" rx="1.03033" ry="1.03263"/><ellipse cx="97.18263" cy="138.73963" rx="1.03033" ry="1.03263"/><ellipse cx="110.91733" cy="138.73963" rx="1.03033" ry="1.03263"/><ellipse cx="124.65133" cy="138.73963" rx="1.03033" ry="1.03263"/><ellipse cx="138.38633" cy="138.73963" rx="1.03033" ry="1.03263"/><ellipse cx="152.11933" cy="138.73963" rx="1.03033" ry="1.03263"/><ellipse cx="165.86633" cy="138.73963" rx="1.03033" ry="1.03263"/><ellipse cx="179.58933" cy="138.73963" rx="1.03033" ry="1.03263"/><ellipse cx="193.32333" cy="138.73963" rx="1.03033" ry="1.03263"/><ellipse cx="207.06833" cy="138.73963" rx="1.03033" ry="1.03263"/><ellipse cx="220.79833" cy="138.73963" rx="1.03033" ry="1.03263"/><ellipse cx="234.53833" cy="138.73963" rx="1.03033" ry="1.03263"/><ellipse cx="248.27133" cy="138.73963" rx="1.03033" ry="1.03263"/><ellipse cx="262.00933" cy="138.73963" rx="1.03033" ry="1.03263"/><ellipse cx="275.74133" cy="138.73963" rx="1.03033" ry="1.03263"/><ellipse cx="289.48233" cy="138.73963" rx="1.03033" ry="1.03263"/><ellipse cx="303.21233" cy="138.73963" rx="1.03033" ry="1.03263"/><ellipse cx="316.94433" cy="138.73963" rx="1.03033" ry="1.03263"/><ellipse cx="1.03033" cy="152.50963" rx="1.03033" ry="1.03263"/><ellipse cx="14.76373" cy="152.50963" rx="1.03033" ry="1.03263"/><ellipse cx="28.49913" cy="152.50963" rx="1.03033" ry="1.03263"/><ellipse cx="42.24033" cy="152.50963" rx="1.03033" ry="1.03263"/><ellipse cx="55.97273" cy="152.50963" rx="1.03033" ry="1.03263"/><ellipse cx="69.70413" cy="152.50963" rx="1.03033" ry="1.03263"/><ellipse cx="83.44343" cy="152.50963" rx="1.03033" ry="1.03263"/><ellipse cx="97.18263" cy="152.50963" rx="1.03033" ry="1.03263"/><ellipse cx="110.91733" cy="152.50963" rx="1.03033" ry="1.03263"/><ellipse cx="124.65133" cy="152.50963" rx="1.03033" ry="1.03263"/><ellipse cx="138.38633" cy="152.50963" rx="1.03033" ry="1.03263"/><ellipse cx="152.11933" cy="152.50963" rx="1.03033" ry="1.03263"/><ellipse cx="165.86633" cy="152.50963" rx="1.03033" ry="1.03263"/><ellipse cx="179.58933" cy="152.50963" rx="1.03033" ry="1.03263"/><ellipse cx="193.32333" cy="152.50963" rx="1.03033" ry="1.03263"/><ellipse cx="207.06833" cy="152.50963" rx="1.03033" ry="1.03263"/><ellipse cx="220.79833" cy="152.50963" rx="1.03033" ry="1.03263"/><ellipse cx="234.53833" cy="152.50963" rx="1.03033" ry="1.03263"/><ellipse cx="248.27133" cy="152.50963" rx="1.03033" ry="1.03263"/><ellipse cx="262.00933" cy="152.50963" rx="1.03033" ry="1.03263"/><ellipse cx="275.74133" cy="152.50963" rx="1.03033" ry="1.03263"/><ellipse cx="289.48233" cy="152.50963" rx="1.03033" ry="1.03263"/><ellipse cx="303.21233" cy="152.50963" rx="1.03033" ry="1.03263"/><ellipse cx="316.94433" cy="152.50963" rx="1.03033" ry="1.03263"/><ellipse cx="1.03033" cy="166.28263" rx="1.03033" ry="1.03263"/><ellipse cx="14.76373" cy="166.27863" rx="1.03033" ry="1.03263"/><ellipse cx="28.49913" cy="166.27863" rx="1.03033" ry="1.03263"/><ellipse cx="42.24033" cy="166.27863" rx="1.03033" ry="1.03263"/><ellipse cx="55.97273" cy="166.27863" rx="1.03033" ry="1.03263"/><ellipse cx="69.70413" cy="166.27863" rx="1.03033" ry="1.03263"/><ellipse cx="83.44343" cy="166.27863" rx="1.03033" ry="1.03263"/><ellipse cx="97.18263" cy="166.27863" rx="1.03033" ry="1.03263"/><ellipse cx="110.91733" cy="166.27863" rx="1.03033" ry="1.03263"/><ellipse cx="124.65133" cy="166.27863" rx="1.03033" ry="1.03263"/><ellipse cx="138.38633" cy="166.27863" rx="1.03033" ry="1.03263"/><ellipse cx="152.11933" cy="166.27863" rx="1.03033" ry="1.03263"/><ellipse cx="165.86633" cy="166.27863" rx="1.03033" ry="1.03263"/><ellipse cx="179.58933" cy="166.27863" rx="1.03033" ry="1.03263"/><ellipse cx="193.32333" cy="166.27863" rx="1.03033" ry="1.03263"/><ellipse cx="207.06833" cy="166.27863" rx="1.03033" ry="1.03263"/><ellipse cx="220.79833" cy="166.27863" rx="1.03033" ry="1.03263"/><ellipse cx="234.53833" cy="166.27863" rx="1.03033" ry="1.03263"/><ellipse cx="248.27133" cy="166.27863" rx="1.03033" ry="1.03263"/><ellipse cx="262.00933" cy="166.27863" rx="1.03033" ry="1.03263"/><ellipse cx="275.74133" cy="166.27863" rx="1.03033" ry="1.03263"/><ellipse cx="289.48233" cy="166.27863" rx="1.03033" ry="1.03263"/><ellipse cx="303.21233" cy="166.27863" rx="1.03033" ry="1.03263"/><ellipse cx="316.94433" cy="166.27863" rx="1.03033" ry="1.03263"/><ellipse cx="1.03033" cy="180.04863" rx="1.03033" ry="1.03263"/><ellipse cx="14.76373" cy="180.04863" rx="1.03033" ry="1.03263"/><ellipse cx="28.49913" cy="180.04863" rx="1.03033" ry="1.03263"/><ellipse cx="42.24033" cy="180.04863" rx="1.03033" ry="1.03263"/><ellipse cx="55.97273" cy="180.04863" rx="1.03033" ry="1.03263"/><ellipse cx="69.70413" cy="180.04863" rx="1.03033" ry="1.03263"/><ellipse cx="83.44343" cy="180.04863" rx="1.03033" ry="1.03263"/><ellipse cx="97.18263" cy="180.04863" rx="1.03033" ry="1.03263"/><ellipse cx="110.91733" cy="180.04863" rx="1.03033" ry="1.03263"/><ellipse cx="124.65133" cy="180.04863" rx="1.03033" ry="1.03263"/><ellipse cx="138.38633" cy="180.04863" rx="1.03033" ry="1.03263"/><ellipse cx="152.11933" cy="180.04863" rx="1.03033" ry="1.03263"/><ellipse cx="165.86633" cy="180.04863" rx="1.03033" ry="1.03263"/><ellipse cx="179.58933" cy="180.04863" rx="1.03033" ry="1.03263"/><ellipse cx="193.32333" cy="180.04863" rx="1.03033" ry="1.03263"/><ellipse cx="207.06833" cy="180.04863" rx="1.03033" ry="1.03263"/><ellipse cx="220.79833" cy="180.04863" rx="1.03033" ry="1.03263"/><ellipse cx="234.53833" cy="180.04863" rx="1.03033" ry="1.03263"/><ellipse cx="248.27133" cy="180.04863" rx="1.03033" ry="1.03263"/><ellipse cx="262.00933" cy="180.04863" rx="1.03033" ry="1.03263"/><ellipse cx="275.74133" cy="180.04863" rx="1.03033" ry="1.03263"/><ellipse cx="289.48233" cy="180.04863" rx="1.03033" ry="1.03263"/><ellipse cx="303.21233" cy="180.04863" rx="1.03033" ry="1.03263"/><ellipse cx="316.94433" cy="180.04863" rx="1.03033" ry="1.03263"/><ellipse cx="1.03033" cy="193.82163" rx="1.03033" ry="1.03263"/><ellipse cx="14.76373" cy="193.82163" rx="1.03033" ry="1.03263"/><ellipse cx="28.49913" cy="193.82163" rx="1.03033" ry="1.03263"/><ellipse cx="42.24033" cy="193.82163" rx="1.03033" ry="1.03263"/><ellipse cx="55.97273" cy="193.82163" rx="1.03033" ry="1.03263"/><ellipse cx="69.70413" cy="193.82163" rx="1.03033" ry="1.03263"/><ellipse cx="83.44343" cy="193.82163" rx="1.03033" ry="1.03263"/><ellipse cx="97.18263" cy="193.82163" rx="1.03033" ry="1.03263"/><ellipse cx="110.91733" cy="193.82163" rx="1.03033" ry="1.03263"/><ellipse cx="124.65133" cy="193.82163" rx="1.03033" ry="1.03263"/><ellipse cx="138.38633" cy="193.82163" rx="1.03033" ry="1.03263"/><ellipse cx="152.11933" cy="193.82163" rx="1.03033" ry="1.03263"/><ellipse cx="165.86633" cy="193.82163" rx="1.03033" ry="1.03263"/><ellipse cx="179.58933" cy="193.82163" rx="1.03033" ry="1.03263"/><ellipse cx="193.32333" cy="193.82163" rx="1.03033" ry="1.03263"/><ellipse cx="207.06833" cy="193.82163" rx="1.03033" ry="1.03263"/><ellipse cx="220.79833" cy="193.82163" rx="1.03033" ry="1.03263"/><ellipse cx="234.53833" cy="193.82163" rx="1.03033" ry="1.03263"/><ellipse cx="248.27133" cy="193.82163" rx="1.03033" ry="1.03263"/><ellipse cx="262.00933" cy="193.82163" rx="1.03033" ry="1.03263"/><ellipse cx="275.74133" cy="193.82163" rx="1.03033" ry="1.03263"/><ellipse cx="289.48233" cy="193.82163" rx="1.03033" ry="1.03263"/><ellipse cx="303.21233" cy="193.82163" rx="1.03033" ry="1.03263"/><ellipse cx="316.94433" cy="193.82163" rx="1.03033" ry="1.03263"/><ellipse cx="1.03033" cy="207.59163" rx="1.03033" ry="1.03263"/><ellipse cx="14.76373" cy="207.59163" rx="1.03033" ry="1.03263"/><ellipse cx="28.49913" cy="207.59163" rx="1.03033" ry="1.03263"/><ellipse cx="42.24033" cy="207.59163" rx="1.03033" ry="1.03263"/><ellipse cx="55.97273" cy="207.59163" rx="1.03033" ry="1.03263"/><ellipse cx="69.70413" cy="207.59163" rx="1.03033" ry="1.03263"/><ellipse cx="83.44343" cy="207.59163" rx="1.03033" ry="1.03263"/><ellipse cx="97.18263" cy="207.59163" rx="1.03033" ry="1.03263"/><ellipse cx="110.91733" cy="207.59163" rx="1.03033" ry="1.03263"/><ellipse cx="124.65133" cy="207.59163" rx="1.03033" ry="1.03263"/><ellipse cx="138.38633" cy="207.59163" rx="1.03033" ry="1.03263"/><ellipse cx="152.11933" cy="207.59163" rx="1.03033" ry="1.03263"/><ellipse cx="165.86633" cy="207.59163" rx="1.03033" ry="1.03263"/><ellipse cx="179.58933" cy="207.59163" rx="1.03033" ry="1.03263"/><ellipse cx="193.32333" cy="207.59163" rx="1.03033" ry="1.03263"/><ellipse cx="207.06833" cy="207.59163" rx="1.03033" ry="1.03263"/><ellipse cx="220.79833" cy="207.59163" rx="1.03033" ry="1.03263"/><ellipse cx="234.53833" cy="207.59163" rx="1.03033" ry="1.03263"/><ellipse cx="248.27133" cy="207.59163" rx="1.03033" ry="1.03263"/><ellipse cx="262.00933" cy="207.59163" rx="1.03033" ry="1.03263"/><ellipse cx="275.74133" cy="207.59163" rx="1.03033" ry="1.03263"/><ellipse cx="289.48233" cy="207.59163" rx="1.03033" ry="1.03263"/><ellipse cx="303.21233" cy="207.59163" rx="1.03033" ry="1.03263"/><ellipse cx="316.94433" cy="207.59163" rx="1.03033" ry="1.03263"/><ellipse cx="330.67233" cy="111.19463" rx="1.03033" ry="1.03263"/><ellipse cx="344.40533" cy="111.19463" rx="1.03033" ry="1.03263"/><ellipse cx="358.14333" cy="111.19463" rx="1.03033" ry="1.03263"/><ellipse cx="371.88433" cy="111.19463" rx="1.03033" ry="1.03263"/><ellipse cx="385.62033" cy="111.19463" rx="1.03033" ry="1.03263"/><ellipse cx="399.35433" cy="111.19463" rx="1.03033" ry="1.03263"/><ellipse cx="413.08733" cy="111.19463" rx="1.03033" ry="1.03263"/><ellipse cx="426.82433" cy="111.19463" rx="1.03033" ry="1.03263"/><ellipse cx="440.55633" cy="111.19463" rx="1.03033" ry="1.03263"/><ellipse cx="454.29733" cy="111.19463" rx="1.03033" ry="1.03263"/><ellipse cx="468.02633" cy="111.19463" rx="1.03033" ry="1.03263"/><ellipse cx="481.76033" cy="111.19463" rx="1.03033" ry="1.03263"/><ellipse cx="495.50633" cy="111.19463" rx="1.03033" ry="1.03263"/><ellipse cx="509.24033" cy="111.19463" rx="1.03033" ry="1.03263"/><ellipse cx="522.97033" cy="111.19463" rx="1.03033" ry="1.03263"/><ellipse cx="536.71033" cy="111.19463" rx="1.03033" ry="1.03263"/><ellipse cx="550.44333" cy="111.19463" rx="1.03033" ry="1.03263"/><ellipse cx="564.17833" cy="111.19463" rx="1.03033" ry="1.03263"/><ellipse cx="577.91333" cy="111.19463" rx="1.03033" ry="1.03263"/><ellipse cx="591.65233" cy="111.19463" rx="1.03033" ry="1.03263"/><ellipse cx="605.38333" cy="111.19463" rx="1.03033" ry="1.03263"/><ellipse cx="619.12333" cy="111.19463" rx="1.03033" ry="1.03263"/><ellipse cx="632.86233" cy="111.19463" rx="1.03033" ry="1.03263"/><ellipse cx="646.59633" cy="111.19463" rx="1.03033" ry="1.03263"/><ellipse cx="330.67233" cy="124.96463" rx="1.03033" ry="1.03263"/><ellipse cx="344.40533" cy="124.96463" rx="1.03033" ry="1.03263"/><ellipse cx="358.14333" cy="124.96463" rx="1.03033" ry="1.03263"/><ellipse cx="371.88433" cy="124.96463" rx="1.03033" ry="1.03263"/><ellipse cx="385.62033" cy="124.96463" rx="1.03033" ry="1.03263"/><ellipse cx="399.35433" cy="124.96463" rx="1.03033" ry="1.03263"/><ellipse cx="413.08733" cy="124.96463" rx="1.03033" ry="1.03263"/><ellipse cx="426.82433" cy="124.96463" rx="1.03033" ry="1.03263"/><ellipse cx="440.55633" cy="124.96463" rx="1.03033" ry="1.03263"/><ellipse cx="454.29733" cy="124.96463" rx="1.03033" ry="1.03263"/><ellipse cx="468.02633" cy="124.96463" rx="1.03033" ry="1.03263"/><ellipse cx="481.76033" cy="124.96463" rx="1.03033" ry="1.03263"/><ellipse cx="495.50633" cy="124.96463" rx="1.03033" ry="1.03263"/><ellipse cx="509.24033" cy="124.96463" rx="1.03033" ry="1.03263"/><ellipse cx="522.97033" cy="124.96463" rx="1.03033" ry="1.03263"/><ellipse cx="536.71033" cy="124.96463" rx="1.03033" ry="1.03263"/><ellipse cx="550.44333" cy="124.96463" rx="1.03033" ry="1.03263"/><ellipse cx="564.17833" cy="124.96463" rx="1.03033" ry="1.03263"/><ellipse cx="577.91333" cy="124.96463" rx="1.03033" ry="1.03263"/><ellipse cx="591.65233" cy="124.96463" rx="1.03033" ry="1.03263"/><ellipse cx="605.38333" cy="124.96463" rx="1.03033" ry="1.03263"/><ellipse cx="619.12333" cy="124.96463" rx="1.03033" ry="1.03263"/><ellipse cx="632.86233" cy="124.96463" rx="1.03033" ry="1.03263"/><ellipse cx="646.59633" cy="124.96463" rx="1.03033" ry="1.03263"/><ellipse cx="330.67233" cy="138.73763" rx="1.03033" ry="1.03263"/><ellipse cx="344.40533" cy="138.73763" rx="1.03033" ry="1.03263"/><ellipse cx="358.14333" cy="138.73763" rx="1.03033" ry="1.03263"/><ellipse cx="371.88433" cy="138.73763" rx="1.03033" ry="1.03263"/><ellipse cx="385.62033" cy="138.73763" rx="1.03033" ry="1.03263"/><ellipse cx="399.35433" cy="138.73763" rx="1.03033" ry="1.03263"/><ellipse cx="413.08733" cy="138.73763" rx="1.03033" ry="1.03263"/><ellipse cx="426.82433" cy="138.73763" rx="1.03033" ry="1.03263"/><ellipse cx="440.55633" cy="138.73763" rx="1.03033" ry="1.03263"/><ellipse cx="454.29733" cy="138.73763" rx="1.03033" ry="1.03263"/><ellipse cx="468.02633" cy="138.73763" rx="1.03033" ry="1.03263"/><ellipse cx="481.76033" cy="138.73763" rx="1.03033" ry="1.03263"/><ellipse cx="495.50633" cy="138.73763" rx="1.03033" ry="1.03263"/><ellipse cx="509.24033" cy="138.73763" rx="1.03033" ry="1.03263"/><ellipse cx="522.97033" cy="138.73763" rx="1.03033" ry="1.03263"/><ellipse cx="536.71033" cy="138.73763" rx="1.03033" ry="1.03263"/><ellipse cx="550.44333" cy="138.73763" rx="1.03033" ry="1.03263"/><ellipse cx="564.17833" cy="138.73763" rx="1.03033" ry="1.03263"/><ellipse cx="577.91333" cy="138.73763" rx="1.03033" ry="1.03263"/><ellipse cx="591.65233" cy="138.73763" rx="1.03033" ry="1.03263"/><ellipse cx="605.38333" cy="138.73763" rx="1.03033" ry="1.03263"/><ellipse cx="619.12333" cy="138.73763" rx="1.03033" ry="1.03263"/><ellipse cx="632.86233" cy="138.73763" rx="1.03033" ry="1.03263"/><ellipse cx="646.59633" cy="138.73763" rx="1.03033" ry="1.03263"/><ellipse cx="330.67233" cy="152.50763" rx="1.03033" ry="1.03263"/><ellipse cx="344.40533" cy="152.50763" rx="1.03033" ry="1.03263"/><ellipse cx="358.14333" cy="152.50763" rx="1.03033" ry="1.03263"/><ellipse cx="371.88433" cy="152.50763" rx="1.03033" ry="1.03263"/><ellipse cx="385.62033" cy="152.50763" rx="1.03033" ry="1.03263"/><ellipse cx="399.35433" cy="152.50763" rx="1.03033" ry="1.03263"/><ellipse cx="413.08733" cy="152.50763" rx="1.03033" ry="1.03263"/><ellipse cx="426.82433" cy="152.50763" rx="1.03033" ry="1.03263"/><ellipse cx="440.55633" cy="152.50763" rx="1.03033" ry="1.03263"/><ellipse cx="454.29733" cy="152.50763" rx="1.03033" ry="1.03263"/><ellipse cx="468.02633" cy="152.50763" rx="1.03033" ry="1.03263"/><ellipse cx="481.76033" cy="152.50763" rx="1.03033" ry="1.03263"/><ellipse cx="495.50633" cy="152.50763" rx="1.03033" ry="1.03263"/><ellipse cx="509.24033" cy="152.50763" rx="1.03033" ry="1.03263"/><ellipse cx="522.97033" cy="152.50763" rx="1.03033" ry="1.03263"/><ellipse cx="536.71033" cy="152.50763" rx="1.03033" ry="1.03263"/><ellipse cx="550.44333" cy="152.50763" rx="1.03033" ry="1.03263"/><ellipse cx="564.17833" cy="152.50763" rx="1.03033" ry="1.03263"/><ellipse cx="577.91333" cy="152.50763" rx="1.03033" ry="1.03263"/><ellipse cx="591.65233" cy="152.50763" rx="1.03033" ry="1.03263"/><ellipse cx="605.38333" cy="152.50763" rx="1.03033" ry="1.03263"/><ellipse cx="619.12333" cy="152.50763" rx="1.03033" ry="1.03263"/><ellipse cx="632.86233" cy="152.50763" rx="1.03033" ry="1.03263"/><ellipse cx="646.59633" cy="152.50763" rx="1.03033" ry="1.03263"/><ellipse cx="330.67233" cy="166.28063" rx="1.03033" ry="1.03263"/><ellipse cx="344.40533" cy="166.27863" rx="1.03033" ry="1.03263"/><ellipse cx="358.14333" cy="166.27863" rx="1.03033" ry="1.03263"/><ellipse cx="371.88433" cy="166.27863" rx="1.03033" ry="1.03263"/><ellipse cx="385.62033" cy="166.27863" rx="1.03033" ry="1.03263"/><ellipse cx="399.35433" cy="166.27863" rx="1.03033" ry="1.03263"/><ellipse cx="413.08733" cy="166.27863" rx="1.03033" ry="1.03263"/><ellipse cx="426.82433" cy="166.27863" rx="1.03033" ry="1.03263"/><ellipse cx="440.55633" cy="166.27863" rx="1.03033" ry="1.03263"/><ellipse cx="454.29733" cy="166.27863" rx="1.03033" ry="1.03263"/><ellipse cx="468.02633" cy="166.27863" rx="1.03033" ry="1.03263"/><ellipse cx="481.76033" cy="166.27863" rx="1.03033" ry="1.03263"/><ellipse cx="495.50633" cy="166.27863" rx="1.03033" ry="1.03263"/><ellipse cx="509.24033" cy="166.27863" rx="1.03033" ry="1.03263"/><ellipse cx="522.97033" cy="166.27863" rx="1.03033" ry="1.03263"/><ellipse cx="536.71033" cy="166.27863" rx="1.03033" ry="1.03263"/><ellipse cx="550.44333" cy="166.27863" rx="1.03033" ry="1.03263"/><ellipse cx="564.17833" cy="166.27863" rx="1.03033" ry="1.03263"/><ellipse cx="577.91333" cy="166.27863" rx="1.03033" ry="1.03263"/><ellipse cx="591.65233" cy="166.27863" rx="1.03033" ry="1.03263"/><ellipse cx="605.38333" cy="166.27863" rx="1.03033" ry="1.03263"/><ellipse cx="619.12333" cy="166.27863" rx="1.03033" ry="1.03263"/><ellipse cx="632.86233" cy="166.27863" rx="1.03033" ry="1.03263"/><ellipse cx="646.59633" cy="166.27863" rx="1.03033" ry="1.03263"/><ellipse cx="330.67233" cy="180.04863" rx="1.03033" ry="1.03263"/><ellipse cx="344.40533" cy="180.04863" rx="1.03033" ry="1.03263"/><ellipse cx="358.14333" cy="180.04863" rx="1.03033" ry="1.03263"/><ellipse cx="371.88433" cy="180.04863" rx="1.03033" ry="1.03263"/><ellipse cx="385.62033" cy="180.04863" rx="1.03033" ry="1.03263"/><ellipse cx="399.35433" cy="180.04863" rx="1.03033" ry="1.03263"/><ellipse cx="413.08733" cy="180.04863" rx="1.03033" ry="1.03263"/><ellipse cx="426.82433" cy="180.04863" rx="1.03033" ry="1.03263"/><ellipse cx="440.55633" cy="180.04863" rx="1.03033" ry="1.03263"/><ellipse cx="454.29733" cy="180.04863" rx="1.03033" ry="1.03263"/><ellipse cx="468.02633" cy="180.04863" rx="1.03033" ry="1.03263"/><ellipse cx="481.76033" cy="180.04863" rx="1.03033" ry="1.03263"/><ellipse cx="495.50633" cy="180.04863" rx="1.03033" ry="1.03263"/><ellipse cx="509.24033" cy="180.04863" rx="1.03033" ry="1.03263"/><ellipse cx="522.97033" cy="180.04863" rx="1.03033" ry="1.03263"/><ellipse cx="536.71033" cy="180.04863" rx="1.03033" ry="1.03263"/><ellipse cx="550.44333" cy="180.04863" rx="1.03033" ry="1.03263"/><ellipse cx="564.17833" cy="180.04863" rx="1.03033" ry="1.03263"/><ellipse cx="577.91333" cy="180.04863" rx="1.03033" ry="1.03263"/><ellipse cx="591.65233" cy="180.04863" rx="1.03033" ry="1.03263"/><ellipse cx="605.38333" cy="180.04863" rx="1.03033" ry="1.03263"/><ellipse cx="619.12333" cy="180.04863" rx="1.03033" ry="1.03263"/><ellipse cx="632.86233" cy="180.04863" rx="1.03033" ry="1.03263"/><ellipse cx="646.59633" cy="180.04863" rx="1.03033" ry="1.03263"/><ellipse cx="330.67233" cy="193.82163" rx="1.03033" ry="1.03263"/><ellipse cx="344.40533" cy="193.82163" rx="1.03033" ry="1.03263"/><ellipse cx="358.14333" cy="193.82163" rx="1.03033" ry="1.03263"/><ellipse cx="371.88433" cy="193.82163" rx="1.03033" ry="1.03263"/><ellipse cx="385.62033" cy="193.82163" rx="1.03033" ry="1.03263"/><ellipse cx="399.35433" cy="193.82163" rx="1.03033" ry="1.03263"/><ellipse cx="413.08733" cy="193.82163" rx="1.03033" ry="1.03263"/><ellipse cx="426.82433" cy="193.82163" rx="1.03033" ry="1.03263"/><ellipse cx="440.55633" cy="193.82163" rx="1.03033" ry="1.03263"/><ellipse cx="454.29733" cy="193.82163" rx="1.03033" ry="1.03263"/><ellipse cx="468.02633" cy="193.82163" rx="1.03033" ry="1.03263"/><ellipse cx="481.76033" cy="193.82163" rx="1.03033" ry="1.03263"/><ellipse cx="495.50633" cy="193.82163" rx="1.03033" ry="1.03263"/><ellipse cx="509.24033" cy="193.82163" rx="1.03033" ry="1.03263"/><ellipse cx="522.97033" cy="193.82163" rx="1.03033" ry="1.03263"/><ellipse cx="536.71033" cy="193.82163" rx="1.03033" ry="1.03263"/><ellipse cx="550.44333" cy="193.82163" rx="1.03033" ry="1.03263"/><ellipse cx="564.17833" cy="193.82163" rx="1.03033" ry="1.03263"/><ellipse cx="577.91333" cy="193.82163" rx="1.03033" ry="1.03263"/><ellipse cx="591.65233" cy="193.82163" rx="1.03033" ry="1.03263"/><ellipse cx="605.38333" cy="193.82163" rx="1.03033" ry="1.03263"/><ellipse cx="619.12333" cy="193.82163" rx="1.03033" ry="1.03263"/><ellipse cx="632.86233" cy="193.82163" rx="1.03033" ry="1.03263"/><ellipse cx="646.59633" cy="193.82163" rx="1.03033" ry="1.03263"/><ellipse cx="330.67233" cy="207.59163" rx="1.03033" ry="1.03263"/><ellipse cx="344.40533" cy="207.59163" rx="1.03033" ry="1.03263"/><ellipse cx="358.14333" cy="207.59163" rx="1.03033" ry="1.03263"/><ellipse cx="371.88433" cy="207.59163" rx="1.03033" ry="1.03263"/><ellipse cx="385.62033" cy="207.59163" rx="1.03033" ry="1.03263"/><ellipse cx="399.35433" cy="207.59163" rx="1.03033" ry="1.03263"/><ellipse cx="413.08733" cy="207.59163" rx="1.03033" ry="1.03263"/><ellipse cx="426.82433" cy="207.59163" rx="1.03033" ry="1.03263"/><ellipse cx="440.55633" cy="207.59163" rx="1.03033" ry="1.03263"/><ellipse cx="454.29733" cy="207.59163" rx="1.03033" ry="1.03263"/><ellipse cx="468.02633" cy="207.59163" rx="1.03033" ry="1.03263"/><ellipse cx="481.76033" cy="207.59163" rx="1.03033" ry="1.03263"/><ellipse cx="495.50633" cy="207.59163" rx="1.03033" ry="1.03263"/><ellipse cx="509.24033" cy="207.59163" rx="1.03033" ry="1.03263"/><ellipse cx="522.97033" cy="207.59163" rx="1.03033" ry="1.03263"/><ellipse cx="536.71033" cy="207.59163" rx="1.03033" ry="1.03263"/><ellipse cx="550.44333" cy="207.59163" rx="1.03033" ry="1.03263"/><ellipse cx="564.17833" cy="207.59163" rx="1.03033" ry="1.03263"/><ellipse cx="577.91333" cy="207.59163" rx="1.03033" ry="1.03263"/><ellipse cx="591.65233" cy="207.59163" rx="1.03033" ry="1.03263"/><ellipse cx="605.38333" cy="207.59163" rx="1.03033" ry="1.03263"/><ellipse cx="619.12333" cy="207.59163" rx="1.03033" ry="1.03263"/><ellipse cx="632.86233" cy="207.59163" rx="1.03033" ry="1.03263"/><ellipse cx="646.59633" cy="207.59163" rx="1.03033" ry="1.03263"/></g></svg>